<svg xmlns="http://www.w3.org/2000/svg" viewBox="0 0 16 16" shape-rendering="crispEdges">
<rect width="16" height="16" fill="#120e26"/>
<rect x="5" y="12" width="2" height="2" fill="#3a2f7a"/>
<rect x="9" y="12" width="2" height="2" fill="#3a2f7a"/>
<rect x="5" y="14" width="2" height="1" fill="#8a5a2b"/>
<rect x="9" y="14" width="2" height="1" fill="#8a5a2b"/>
<rect x="4" y="7" width="8" height="5" fill="#3b6fd4"/>
<rect x="4" y="11" width="8" height="1" fill="#2b57b0"/>
<rect x="6" y="7" width="4" height="1" fill="#f4ecd8"/>
<rect x="4" y="10" width="8" height="1" fill="#ffc933"/>
<rect x="3" y="7" width="1" height="3" fill="#3b6fd4"/>
<rect x="12" y="7" width="1" height="3" fill="#3b6fd4"/>
<rect x="3" y="10" width="1" height="1" fill="#f2c9a0"/>
<rect x="12" y="10" width="1" height="1" fill="#f2c9a0"/>
<rect x="5" y="4" width="6" height="3" fill="#f2c9a0"/>
<rect x="6" y="5" width="1" height="1" fill="#120e26"/>
<rect x="9" y="5" width="1" height="1" fill="#120e26"/>
<rect x="5" y="2" width="6" height="1" fill="#5b3a29"/>
<rect x="4" y="3" width="8" height="1" fill="#5b3a29"/>
<rect x="4" y="4" width="1" height="2" fill="#5b3a29"/>
<rect x="11" y="4" width="1" height="2" fill="#5b3a29"/>
<rect x="14" y="3" width="1" height="7" fill="#d8e4f0"/>
<rect x="13" y="10" width="3" height="1" fill="#ffc933"/>
<rect x="14" y="11" width="1" height="1" fill="#8a5a2b"/>
</svg>